<?xml version="1.0" standalone="no"?>
<!DOCTYPE svg PUBLIC "-//W3C//DTD SVG 20010904//EN"
 "http://www.w3.org/TR/2001/REC-SVG-20010904/DTD/svg10.dtd">
<svg version="1.0" xmlns="http://www.w3.org/2000/svg"
 width="512.000000pt" height="512.000000pt" viewBox="0 0 512.000000 512.000000"
 preserveAspectRatio="xMidYMid meet">
<metadata>
Created by potrace 1.14, written by Peter Selinger 2001-2017
</metadata>
<g transform="translate(0.000000,512.000000) scale(0.100000,-0.100000)"
fill="#000000" stroke="none">
<path d="M275 5106 c-132 -42 -222 -131 -259 -257 -14 -47 -16 -133 -14 -709
l3 -655 32 -65 c47 -99 113 -161 203 -194 66 -24 76 -24 301 -25 l206 -1 0
-1137 c0 -863 3 -1147 12 -1175 16 -47 68 -102 117 -123 45 -19 136 -18 175 1
39 20 87 71 105 113 14 32 16 161 17 1174 0 810 3 1140 11 1143 6 2 110 4 231
6 l220 3 67 32 c128 61 205 174 215 319 l5 70 -518 1 c-461 1 -526 3 -579 18
-183 53 -326 193 -378 372 -24 80 -20 233 8 309 64 179 197 303 375 349 57 15
128 17 579 18 l513 1 -5 72 c-8 123 -73 233 -174 297 -89 57 -89 56 -786 56
-492 0 -651 -3 -682 -13z"/>
<path d="M3475 5106 c-146 -47 -249 -162 -274 -308 0 -5 -1 -102 -1 -216 l0
-209 -1144 0 -1144 0 -43 -22 c-80 -41 -119 -104 -119 -191 0 -62 18 -107 58
-148 67 -68 -15 -64 1250 -65 l1142 0 1 -206 c1 -225 1 -235 25 -301 49 -133
179 -227 328 -237 l72 -5 1 513 c1 451 3 522 18 579 33 128 107 234 212 307
306 209 714 59 818 -302 16 -53 18 -117 18 -578 l1 -519 73 5 c147 10 270 98
324 234 l28 68 1 642 c0 462 -3 656 -11 689 -27 107 -104 198 -209 248 l-65
31 -660 2 c-511 1 -669 -1 -700 -11z"/>
<path d="M4082 4360 c-45 -19 -91 -62 -113 -108 l-22 -47 -1 -1140 -1 -1140
-230 -5 -230 -5 -66 -31 c-135 -64 -212 -182 -218 -335 l-2 -55 498 -1 c587 0
581 0 702 -59 130 -64 233 -190 275 -336 20 -71 21 -196 1 -273 -53 -200 -232
-363 -432 -391 -26 -4 -272 -7 -545 -7 l-498 -1 0 -51 c0 -145 84 -274 220
-339 l65 -31 675 0 675 0 67 32 c88 42 154 110 189 200 l28 68 1 642 c0 462
-3 656 -11 689 -27 105 -105 199 -204 245 -78 36 -84 37 -326 38 l-206 1 0
1144 0 1144 -22 43 c-31 59 -45 74 -97 98 -46 22 -130 27 -172 11z"/>
<path d="M274 1905 c-128 -38 -221 -130 -258 -256 -14 -47 -16 -135 -16 -694
1 -617 2 -642 21 -700 35 -103 94 -168 199 -218 l65 -32 655 -3 c714 -2 712
-3 802 54 76 48 143 136 165 216 4 13 9 125 12 249 l6 226 1140 0 c1015 1
1144 3 1176 17 42 18 93 66 113 105 19 39 20 130 1 175 -21 49 -76 101 -123
117 -28 9 -313 12 -1172 13 l-1135 1 -6 230 c-3 127 -10 241 -15 255 -55 149
-183 246 -337 257 l-73 5 -1 -498 c0 -275 -3 -521 -7 -547 -15 -105 -84 -236
-163 -308 -50 -45 -135 -94 -202 -117 -72 -24 -229 -27 -304 -5 -179 52 -319
194 -372 378 -15 53 -17 118 -18 578 l-1 518 -56 -2 c-31 -1 -74 -7 -96 -14z"/>
</g>
</svg>
